{
	"asset":{
		"generator":"Khronos glTF Blender I/O v4.2.57",
		"version":"2.0"
	},
	"extensionsUsed":[
		"KHR_materials_specular"
	],
	"scene":0,
	"scenes":[
		{
			"extras":{
				"blosm":{
					"defaultLevels":[
						{
							"levels":4,
							"weight":10
						},
						{
							"levels":5,
							"weight":40
						},
						{
							"levels":6,
							"weight":10
						}
					]
				},
				"mcprep_skins_list":[
					{
						"label":"Admin22224&belt.png skin",
						"description":"Admin22224&belt.png skin",
						"name":"Admin22224&belt.png"
					},
					{
						"label":"Admin22224&Trousers&belt.png skin",
						"description":"Admin22224&Trousers&belt.png skin",
						"name":"Admin22224&Trousers&belt.png"
					},
					{
						"label":"Admin22224.Mcprep.png skin",
						"description":"Admin22224.Mcprep.png skin",
						"name":"Admin22224.Mcprep.png"
					},
					{
						"label":"Admin22224.png skin",
						"description":"Admin22224.png skin",
						"name":"Admin22224.png"
					},
					{
						"label":"alex.png skin",
						"description":"alex.png skin",
						"name":"alex.png"
					},
					{
						"label":"foxynotail.png skin",
						"description":"foxynotail.png skin",
						"name":"foxynotail.png"
					},
					{
						"label":"grian.png skin",
						"description":"grian.png skin",
						"name":"grian.png"
					},
					{
						"label":"Harry Potter.png skin",
						"description":"Harry Potter.png skin",
						"name":"Harry Potter.png"
					},
					{
						"label":"Lauren.png skin",
						"description":"Lauren.png skin",
						"name":"Lauren.png"
					},
					{
						"label":"mhf_herobrine.png skin",
						"description":"mhf_herobrine.png skin",
						"name":"mhf_herobrine.png"
					},
					{
						"label":"mrbeardstone.png skin",
						"description":"mrbeardstone.png skin",
						"name":"mrbeardstone.png"
					},
					{
						"label":"mrcrayfish.png skin",
						"description":"mrcrayfish.png skin",
						"name":"mrcrayfish.png"
					},
					{
						"label":"mumbojumbo.png skin",
						"description":"mumbojumbo.png skin",
						"name":"mumbojumbo.png"
					},
					{
						"label":"notch.png skin",
						"description":"notch.png skin",
						"name":"notch.png"
					},
					{
						"label":"pixlriffs.png skin",
						"description":"pixlriffs.png skin",
						"name":"pixlriffs.png"
					},
					{
						"label":"PonderSlime with Hoodie.png skin",
						"description":"PonderSlime with Hoodie.png skin",
						"name":"PonderSlime with Hoodie.png"
					},
					{
						"label":"PonderSlime Wonka Outfit.png skin",
						"description":"PonderSlime Wonka Outfit.png skin",
						"name":"PonderSlime Wonka Outfit.png"
					},
					{
						"label":"ponderslime.png skin",
						"description":"ponderslime.png skin",
						"name":"ponderslime.png"
					},
					{
						"label":"redshirt.png skin",
						"description":"redshirt.png skin",
						"name":"redshirt.png"
					},
					{
						"label":"Santa-on-planetminecraft-com.png skin",
						"description":"Santa-on-planetminecraft-com.png skin",
						"name":"Santa-on-planetminecraft-com.png"
					},
					{
						"label":"skipthetutorial.png skin",
						"description":"skipthetutorial.png skin",
						"name":"skipthetutorial.png"
					},
					{
						"label":"steve.png skin",
						"description":"steve.png skin",
						"name":"steve.png"
					},
					{
						"label":"steve2.png skin",
						"description":"steve2.png skin",
						"name":"steve2.png"
					},
					{
						"label":"template-skin.png skin",
						"description":"template-skin.png skin",
						"name":"template-skin.png"
					},
					{
						"label":"theduckcow.png skin",
						"description":"theduckcow.png skin",
						"name":"theduckcow.png"
					},
					{
						"label":"thekindkitten.png skin",
						"description":"thekindkitten.png skin",
						"name":"thekindkitten.png"
					},
					{
						"label":"Toolbelt-Trousers-from-the-Minecraft-Bedrock-character-creator-on-planetminecraft-com.png skin",
						"description":"Toolbelt-Trousers-from-the-Minecraft-Bedrock-character-creator-on-planetminecraft-com.png skin",
						"name":"Toolbelt-Trousers-from-the-Minecraft-Bedrock-character-creator-on-planetminecraft-com.png"
					},
					{
						"label":"Wand.png skin",
						"description":"Wand.png skin",
						"name":"Wand.png"
					},
					{
						"label":"wattles.png skin",
						"description":"wattles.png skin",
						"name":"wattles.png"
					}
				]
			},
			"name":"Scene",
			"nodes":[
				0
			]
		}
	],
	"nodes":[
		{
			"extras":{
				"jv_properties":{}
			},
			"mesh":0,
			"name":"Body"
		}
	],
	"animations":[
		{
			"channels":[
				{
					"sampler":0,
					"target":{
						"node":0,
						"path":"translation"
					}
				},
				{
					"sampler":1,
					"target":{
						"node":0,
						"path":"rotation"
					}
				},
				{
					"sampler":2,
					"target":{
						"node":0,
						"path":"scale"
					}
				}
			],
			"name":"acesjust39Action",
			"samplers":[
				{
					"input":50,
					"interpolation":"LINEAR",
					"output":51
				},
				{
					"input":50,
					"interpolation":"LINEAR",
					"output":52
				},
				{
					"input":50,
					"interpolation":"LINEAR",
					"output":53
				}
			]
		}
	],
	"materials":[
		{
			"doubleSided":true,
			"extensions":{
				"KHR_materials_specular":{
					"specularFactor":0,
					"specularColorFactor":[
						0.8980392217636108,
						0.8980392217636108,
						0.8980392217636108
					]
				}
			},
			"name":"acesjustforro9",
			"pbrMetallicRoughness":{
				"baseColorFactor":[
					0.686274528503418,
					0.24705882370471954,
					0.10980392247438431,
					1
				],
				"metallicFactor":0,
				"roughnessFactor":0.699999988079071
			}
		},
		{
			"doubleSided":true,
			"extensions":{
				"KHR_materials_specular":{
					"specularFactor":0,
					"specularColorFactor":[
						0.8980392217636108,
						0.8980392217636108,
						0.8980392217636108
					]
				}
			},
			"name":"acesjustforrooms",
			"pbrMetallicRoughness":{
				"baseColorFactor":[
					0.9490196108818054,
					0.9490196108818054,
					0.9490196108818054,
					1
				],
				"metallicFactor":0,
				"roughnessFactor":0.699999988079071
			}
		},
		{
			"doubleSided":true,
			"extensions":{
				"KHR_materials_specular":{
					"specularFactor":0,
					"specularColorFactor":[
						0.8980392217636108,
						0.8980392217636108,
						0.8980392217636108
					]
				}
			},
			"name":"acesjustforro1",
			"pbrMetallicRoughness":{
				"baseColorFactor":[
					0.06666667014360428,
					0.06666667014360428,
					0.06666667014360428,
					1
				],
				"metallicFactor":0,
				"roughnessFactor":0.699999988079071
			}
		},
		{
			"doubleSided":true,
			"extensions":{
				"KHR_materials_specular":{
					"specularColorFactor":[
						0.9960784316062927,
						0.9960784316062927,
						0.9960784316062927
					]
				}
			},
			"name":"acesjustforro2",
			"pbrMetallicRoughness":{
				"baseColorFactor":[
					0.24705882370471954,
					0.24705882370471954,
					0.24705882370471954,
					1
				],
				"metallicFactor":0,
				"roughnessFactor":0.9900000095367432
			}
		},
		{
			"doubleSided":true,
			"extensions":{
				"KHR_materials_specular":{
					"specularColorFactor":[
						0.9960784316062927,
						0.9960784316062927,
						0.9960784316062927
					]
				}
			},
			"name":"acesjustforro3",
			"pbrMetallicRoughness":{
				"baseColorFactor":[
					0.30980393290519714,
					0.30980393290519714,
					0.30980393290519714,
					1
				],
				"metallicFactor":0,
				"roughnessFactor":0.9900000095367432
			}
		},
		{
			"doubleSided":true,
			"extensions":{
				"KHR_materials_specular":{
					"specularFactor":0,
					"specularColorFactor":[
						0.8980392217636108,
						0.8980392217636108,
						0.8980392217636108
					]
				}
			},
			"name":"acesjustforro8",
			"pbrMetallicRoughness":{
				"baseColorFactor":[
					0.7176470756530762,
					0.019607843831181526,
					0.019607843831181526,
					1
				],
				"metallicFactor":0,
				"roughnessFactor":0.699999988079071
			}
		},
		{
			"doubleSided":true,
			"extensions":{
				"KHR_materials_specular":{
					"specularFactor":0,
					"specularColorFactor":[
						0.8980392217636108,
						0.8980392217636108,
						0.8980392217636108
					]
				}
			},
			"name":"acesjustforro10",
			"pbrMetallicRoughness":{
				"baseColorFactor":[
					0.06666667014360428,
					0.1882352977991104,
					0.46666666865348816,
					1
				],
				"metallicFactor":0,
				"roughnessFactor":0.699999988079071
			}
		},
		{
			"doubleSided":true,
			"extensions":{
				"KHR_materials_specular":{
					"specularFactor":0,
					"specularColorFactor":[
						0.8980392217636108,
						0.8980392217636108,
						0.8980392217636108
					]
				}
			},
			"name":"acesjustforro11",
			"pbrMetallicRoughness":{
				"baseColorFactor":[
					0.16862745583057404,
					0.16862745583057404,
					0.16862745583057404,
					1
				],
				"metallicFactor":0,
				"roughnessFactor":0.699999988079071
			}
		},
		{
			"doubleSided":true,
			"extensions":{
				"KHR_materials_specular":{
					"specularFactor":0,
					"specularColorFactor":[
						0.8980392217636108,
						0.8980392217636108,
						0.8980392217636108
					]
				}
			},
			"name":"acesjustforro12",
			"pbrMetallicRoughness":{
				"baseColorFactor":[
					0.7176470756530762,
					0.7176470756530762,
					0.7176470756530762,
					1
				],
				"metallicFactor":0,
				"roughnessFactor":0.699999988079071
			}
		},
		{
			"doubleSided":true,
			"extensions":{
				"KHR_materials_specular":{
					"specularFactor":0,
					"specularColorFactor":[
						0.8980392217636108,
						0.8980392217636108,
						0.8980392217636108
					]
				}
			},
			"name":"acesjustforro13",
			"pbrMetallicRoughness":{
				"baseColorFactor":[
					0.7882353067398071,
					0.24705882370471954,
					0.0784313753247261,
					1
				],
				"metallicFactor":0,
				"roughnessFactor":0.699999988079071
			}
		}
	],
	"meshes":[
		{
			"name":"acesjust39",
			"primitives":[
				{
					"attributes":{
						"POSITION":0,
						"NORMAL":1,
						"TEXCOORD_0":2,
						"TANGENT":3
					},
					"indices":4,
					"material":0
				},
				{
					"attributes":{
						"POSITION":5,
						"NORMAL":6,
						"TEXCOORD_0":7,
						"TANGENT":8
					},
					"indices":9,
					"material":1
				},
				{
					"attributes":{
						"POSITION":10,
						"NORMAL":11,
						"TEXCOORD_0":12,
						"TANGENT":13
					},
					"indices":14,
					"material":2
				},
				{
					"attributes":{
						"POSITION":15,
						"NORMAL":16,
						"TEXCOORD_0":17,
						"TANGENT":18
					},
					"indices":19,
					"material":3
				},
				{
					"attributes":{
						"POSITION":20,
						"NORMAL":21,
						"TEXCOORD_0":22,
						"TANGENT":23
					},
					"indices":24,
					"material":4
				},
				{
					"attributes":{
						"POSITION":25,
						"NORMAL":26,
						"TEXCOORD_0":27,
						"TANGENT":28
					},
					"indices":29,
					"material":5
				},
				{
					"attributes":{
						"POSITION":30,
						"NORMAL":31,
						"TEXCOORD_0":32,
						"TANGENT":33
					},
					"indices":34,
					"material":6
				},
				{
					"attributes":{
						"POSITION":35,
						"NORMAL":36,
						"TEXCOORD_0":37,
						"TANGENT":38
					},
					"indices":39,
					"material":7
				},
				{
					"attributes":{
						"POSITION":40,
						"NORMAL":41,
						"TEXCOORD_0":42,
						"TANGENT":43
					},
					"indices":44,
					"material":8
				},
				{
					"attributes":{
						"POSITION":45,
						"NORMAL":46,
						"TEXCOORD_0":47,
						"TANGENT":48
					},
					"indices":49,
					"material":9
				}
			]
		}
	],
	"accessors":[
		{
			"bufferView":0,
			"componentType":5126,
			"count":12348,
			"max":[
				0.4540034234523773,
				1.7005449533462524,
				0.25245213508605957
			],
			"min":[
				-0.43399956822395325,
				0.19516099989414215,
				-0.12251941859722137
			],
			"type":"VEC3"
		},
		{
			"bufferView":1,
			"componentType":5126,
			"count":12348,
			"type":"VEC3"
		},
		{
			"bufferView":2,
			"componentType":5126,
			"count":12348,
			"type":"VEC2"
		},
		{
			"bufferView":3,
			"componentType":5126,
			"count":12348,
			"type":"VEC4"
		},
		{
			"bufferView":4,
			"componentType":5123,
			"count":12348,
			"type":"SCALAR"
		},
		{
			"bufferView":5,
			"componentType":5126,
			"count":8216,
			"max":[
				0.400807648897171,
				1.5390039682388306,
				-0.07484295964241028
			],
			"min":[
				-0.40855535864830017,
				0.8660100102424622,
				-0.2719760537147522
			],
			"type":"VEC3"
		},
		{
			"bufferView":6,
			"componentType":5126,
			"count":8216,
			"type":"VEC3"
		},
		{
			"bufferView":7,
			"componentType":5126,
			"count":8216,
			"type":"VEC2"
		},
		{
			"bufferView":8,
			"componentType":5126,
			"count":8216,
			"type":"VEC4"
		},
		{
			"bufferView":9,
			"componentType":5123,
			"count":8532,
			"type":"SCALAR"
		},
		{
			"bufferView":10,
			"componentType":5126,
			"count":1272,
			"max":[
				0.05231575667858124,
				0.9170730113983154,
				-0.042797114700078964
			],
			"min":[
				-0.0407559797167778,
				0.8059989809989929,
				-0.1041068434715271
			],
			"type":"VEC3"
		},
		{
			"bufferView":11,
			"componentType":5126,
			"count":1272,
			"type":"VEC3"
		},
		{
			"bufferView":12,
			"componentType":5126,
			"count":1272,
			"type":"VEC2"
		},
		{
			"bufferView":13,
			"componentType":5126,
			"count":1272,
			"type":"VEC4"
		},
		{
			"bufferView":14,
			"componentType":5123,
			"count":1272,
			"type":"SCALAR"
		},
		{
			"bufferView":15,
			"componentType":5126,
			"count":15924,
			"max":[
				0.4297168254852295,
				1.5270700454711914,
				0.0012399721890687943
			],
			"min":[
				-0.4196239709854126,
				1.1424560546875,
				-0.12949220836162567
			],
			"type":"VEC3"
		},
		{
			"bufferView":16,
			"componentType":5126,
			"count":15924,
			"type":"VEC3"
		},
		{
			"bufferView":17,
			"componentType":5126,
			"count":15924,
			"type":"VEC2"
		},
		{
			"bufferView":18,
			"componentType":5126,
			"count":15924,
			"type":"VEC4"
		},
		{
			"bufferView":19,
			"componentType":5123,
			"count":16380,
			"type":"SCALAR"
		},
		{
			"bufferView":20,
			"componentType":5126,
			"count":290,
			"max":[
				0.020832128822803497,
				1.4893840551376343,
				-0.07920847088098526
			],
			"min":[
				-0.009471875615417957,
				1.4079920053482056,
				-0.1191742792725563
			],
			"type":"VEC3"
		},
		{
			"bufferView":21,
			"componentType":5126,
			"count":290,
			"type":"VEC3"
		},
		{
			"bufferView":22,
			"componentType":5126,
			"count":290,
			"type":"VEC2"
		},
		{
			"bufferView":23,
			"componentType":5126,
			"count":290,
			"type":"VEC4"
		},
		{
			"bufferView":24,
			"componentType":5123,
			"count":300,
			"type":"SCALAR"
		},
		{
			"bufferView":25,
			"componentType":5126,
			"count":96,
			"max":[
				0.09675372391939163,
				1.1855920553207397,
				-0.09206477552652359
			],
			"min":[
				-0.0834738239645958,
				1.183061957359314,
				-0.10024918615818024
			],
			"type":"VEC3"
		},
		{
			"bufferView":26,
			"componentType":5126,
			"count":96,
			"type":"VEC3"
		},
		{
			"bufferView":27,
			"componentType":5126,
			"count":96,
			"type":"VEC2"
		},
		{
			"bufferView":28,
			"componentType":5126,
			"count":96,
			"type":"VEC4"
		},
		{
			"bufferView":29,
			"componentType":5123,
			"count":96,
			"type":"SCALAR"
		},
		{
			"bufferView":30,
			"componentType":5126,
			"count":6336,
			"max":[
				0.442950963973999,
				1.698762059211731,
				0.2189844399690628
			],
			"min":[
				-0.42039576172828674,
				0.9980400204658508,
				-0.17524844408035278
			],
			"type":"VEC3"
		},
		{
			"bufferView":31,
			"componentType":5126,
			"count":6336,
			"type":"VEC3"
		},
		{
			"bufferView":32,
			"componentType":5126,
			"count":6336,
			"type":"VEC2"
		},
		{
			"bufferView":33,
			"componentType":5126,
			"count":6336,
			"type":"VEC4"
		},
		{
			"bufferView":34,
			"componentType":5123,
			"count":6336,
			"type":"SCALAR"
		},
		{
			"bufferView":35,
			"componentType":5126,
			"count":4346,
			"max":[
				0.268983393907547,
				0.19840699434280396,
				0.1215982660651207
			],
			"min":[
				-0.2432532012462616,
				0.02753799967467785,
				-0.2548445165157318
			],
			"type":"VEC3"
		},
		{
			"bufferView":36,
			"componentType":5126,
			"count":4346,
			"type":"VEC3"
		},
		{
			"bufferView":37,
			"componentType":5126,
			"count":4346,
			"type":"VEC2"
		},
		{
			"bufferView":38,
			"componentType":5126,
			"count":4346,
			"type":"VEC4"
		},
		{
			"bufferView":39,
			"componentType":5123,
			"count":4464,
			"type":"SCALAR"
		},
		{
			"bufferView":40,
			"componentType":5126,
			"count":13981,
			"max":[
				0.27160924673080444,
				1.684717059135437,
				0.20920415222644806
			],
			"min":[
				-0.24584203958511353,
				0.0017000000225380063,
				-0.2551240921020508
			],
			"type":"VEC3"
		},
		{
			"bufferView":41,
			"componentType":5126,
			"count":13981,
			"type":"VEC3"
		},
		{
			"bufferView":42,
			"componentType":5126,
			"count":13981,
			"type":"VEC2"
		},
		{
			"bufferView":43,
			"componentType":5126,
			"count":13981,
			"type":"VEC4"
		},
		{
			"bufferView":44,
			"componentType":5123,
			"count":14016,
			"type":"SCALAR"
		},
		{
			"bufferView":45,
			"componentType":5126,
			"count":24581,
			"max":[
				0.41473764181137085,
				1.2322759628295898,
				-0.051483236253261566
			],
			"min":[
				-0.42008543014526367,
				0.9857659935951233,
				-0.28390148282051086
			],
			"type":"VEC3"
		},
		{
			"bufferView":46,
			"componentType":5126,
			"count":24581,
			"type":"VEC3"
		},
		{
			"bufferView":47,
			"componentType":5126,
			"count":24581,
			"type":"VEC2"
		},
		{
			"bufferView":48,
			"componentType":5126,
			"count":24581,
			"type":"VEC4"
		},
		{
			"bufferView":49,
			"componentType":5123,
			"count":24603,
			"type":"SCALAR"
		},
		{
			"bufferView":50,
			"componentType":5126,
			"count":1,
			"max":[
				0
			],
			"min":[
				0
			],
			"type":"SCALAR"
		},
		{
			"bufferView":51,
			"componentType":5126,
			"count":1,
			"type":"VEC3"
		},
		{
			"bufferView":52,
			"componentType":5126,
			"count":1,
			"type":"VEC4"
		},
		{
			"bufferView":53,
			"componentType":5126,
			"count":1,
			"type":"VEC3"
		}
	],
	"bufferViews":[
		{
			"buffer":0,
			"byteLength":148176,
			"byteOffset":0,
			"target":34962
		},
		{
			"buffer":0,
			"byteLength":148176,
			"byteOffset":148176,
			"target":34962
		},
		{
			"buffer":0,
			"byteLength":98784,
			"byteOffset":296352,
			"target":34962
		},
		{
			"buffer":0,
			"byteLength":197568,
			"byteOffset":395136,
			"target":34962
		},
		{
			"buffer":0,
			"byteLength":24696,
			"byteOffset":592704,
			"target":34963
		},
		{
			"buffer":0,
			"byteLength":98592,
			"byteOffset":617400,
			"target":34962
		},
		{
			"buffer":0,
			"byteLength":98592,
			"byteOffset":715992,
			"target":34962
		},
		{
			"buffer":0,
			"byteLength":65728,
			"byteOffset":814584,
			"target":34962
		},
		{
			"buffer":0,
			"byteLength":131456,
			"byteOffset":880312,
			"target":34962
		},
		{
			"buffer":0,
			"byteLength":17064,
			"byteOffset":1011768,
			"target":34963
		},
		{
			"buffer":0,
			"byteLength":15264,
			"byteOffset":1028832,
			"target":34962
		},
		{
			"buffer":0,
			"byteLength":15264,
			"byteOffset":1044096,
			"target":34962
		},
		{
			"buffer":0,
			"byteLength":10176,
			"byteOffset":1059360,
			"target":34962
		},
		{
			"buffer":0,
			"byteLength":20352,
			"byteOffset":1069536,
			"target":34962
		},
		{
			"buffer":0,
			"byteLength":2544,
			"byteOffset":1089888,
			"target":34963
		},
		{
			"buffer":0,
			"byteLength":191088,
			"byteOffset":1092432,
			"target":34962
		},
		{
			"buffer":0,
			"byteLength":191088,
			"byteOffset":1283520,
			"target":34962
		},
		{
			"buffer":0,
			"byteLength":127392,
			"byteOffset":1474608,
			"target":34962
		},
		{
			"buffer":0,
			"byteLength":254784,
			"byteOffset":1602000,
			"target":34962
		},
		{
			"buffer":0,
			"byteLength":32760,
			"byteOffset":1856784,
			"target":34963
		},
		{
			"buffer":0,
			"byteLength":3480,
			"byteOffset":1889544,
			"target":34962
		},
		{
			"buffer":0,
			"byteLength":3480,
			"byteOffset":1893024,
			"target":34962
		},
		{
			"buffer":0,
			"byteLength":2320,
			"byteOffset":1896504,
			"target":34962
		},
		{
			"buffer":0,
			"byteLength":4640,
			"byteOffset":1898824,
			"target":34962
		},
		{
			"buffer":0,
			"byteLength":600,
			"byteOffset":1903464,
			"target":34963
		},
		{
			"buffer":0,
			"byteLength":1152,
			"byteOffset":1904064,
			"target":34962
		},
		{
			"buffer":0,
			"byteLength":1152,
			"byteOffset":1905216,
			"target":34962
		},
		{
			"buffer":0,
			"byteLength":768,
			"byteOffset":1906368,
			"target":34962
		},
		{
			"buffer":0,
			"byteLength":1536,
			"byteOffset":1907136,
			"target":34962
		},
		{
			"buffer":0,
			"byteLength":192,
			"byteOffset":1908672,
			"target":34963
		},
		{
			"buffer":0,
			"byteLength":76032,
			"byteOffset":1908864,
			"target":34962
		},
		{
			"buffer":0,
			"byteLength":76032,
			"byteOffset":1984896,
			"target":34962
		},
		{
			"buffer":0,
			"byteLength":50688,
			"byteOffset":2060928,
			"target":34962
		},
		{
			"buffer":0,
			"byteLength":101376,
			"byteOffset":2111616,
			"target":34962
		},
		{
			"buffer":0,
			"byteLength":12672,
			"byteOffset":2212992,
			"target":34963
		},
		{
			"buffer":0,
			"byteLength":52152,
			"byteOffset":2225664,
			"target":34962
		},
		{
			"buffer":0,
			"byteLength":52152,
			"byteOffset":2277816,
			"target":34962
		},
		{
			"buffer":0,
			"byteLength":34768,
			"byteOffset":2329968,
			"target":34962
		},
		{
			"buffer":0,
			"byteLength":69536,
			"byteOffset":2364736,
			"target":34962
		},
		{
			"buffer":0,
			"byteLength":8928,
			"byteOffset":2434272,
			"target":34963
		},
		{
			"buffer":0,
			"byteLength":167772,
			"byteOffset":2443200,
			"target":34962
		},
		{
			"buffer":0,
			"byteLength":167772,
			"byteOffset":2610972,
			"target":34962
		},
		{
			"buffer":0,
			"byteLength":111848,
			"byteOffset":2778744,
			"target":34962
		},
		{
			"buffer":0,
			"byteLength":223696,
			"byteOffset":2890592,
			"target":34962
		},
		{
			"buffer":0,
			"byteLength":28032,
			"byteOffset":3114288,
			"target":34963
		},
		{
			"buffer":0,
			"byteLength":294972,
			"byteOffset":3142320,
			"target":34962
		},
		{
			"buffer":0,
			"byteLength":294972,
			"byteOffset":3437292,
			"target":34962
		},
		{
			"buffer":0,
			"byteLength":196648,
			"byteOffset":3732264,
			"target":34962
		},
		{
			"buffer":0,
			"byteLength":393296,
			"byteOffset":3928912,
			"target":34962
		},
		{
			"buffer":0,
			"byteLength":49206,
			"byteOffset":4322208,
			"target":34963
		},
		{
			"buffer":0,
			"byteLength":4,
			"byteOffset":4371416
		},
		{
			"buffer":0,
			"byteLength":12,
			"byteOffset":4371420
		},
		{
			"buffer":0,
			"byteLength":16,
			"byteOffset":4371432
		},
		{
			"buffer":0,
			"byteLength":12,
			"byteOffset":4371448
		}
	],
	"buffers":[
		{
			"byteLength":4371460,
			"uri":"body-cc54ddb15ccf4f7e20893df9355edcff.bin"
		}
	]
}
