{
	"asset":{
		"generator":"Khronos glTF Blender I/O v4.2.57",
		"version":"2.0"
	},
	"extensionsUsed":[
		"KHR_materials_specular"
	],
	"scene":0,
	"scenes":[
		{
			"extras":{
				"blosm":{
					"defaultLevels":[
						{
							"levels":4,
							"weight":10
						},
						{
							"levels":5,
							"weight":40
						},
						{
							"levels":6,
							"weight":10
						}
					]
				},
				"mcprep_skins_list":[
					{
						"label":"Admin22224&belt.png skin",
						"description":"Admin22224&belt.png skin",
						"name":"Admin22224&belt.png"
					},
					{
						"label":"Admin22224&Trousers&belt.png skin",
						"description":"Admin22224&Trousers&belt.png skin",
						"name":"Admin22224&Trousers&belt.png"
					},
					{
						"label":"Admin22224.Mcprep.png skin",
						"description":"Admin22224.Mcprep.png skin",
						"name":"Admin22224.Mcprep.png"
					},
					{
						"label":"Admin22224.png skin",
						"description":"Admin22224.png skin",
						"name":"Admin22224.png"
					},
					{
						"label":"alex.png skin",
						"description":"alex.png skin",
						"name":"alex.png"
					},
					{
						"label":"foxynotail.png skin",
						"description":"foxynotail.png skin",
						"name":"foxynotail.png"
					},
					{
						"label":"grian.png skin",
						"description":"grian.png skin",
						"name":"grian.png"
					},
					{
						"label":"Harry Potter.png skin",
						"description":"Harry Potter.png skin",
						"name":"Harry Potter.png"
					},
					{
						"label":"Lauren.png skin",
						"description":"Lauren.png skin",
						"name":"Lauren.png"
					},
					{
						"label":"mhf_herobrine.png skin",
						"description":"mhf_herobrine.png skin",
						"name":"mhf_herobrine.png"
					},
					{
						"label":"mrbeardstone.png skin",
						"description":"mrbeardstone.png skin",
						"name":"mrbeardstone.png"
					},
					{
						"label":"mrcrayfish.png skin",
						"description":"mrcrayfish.png skin",
						"name":"mrcrayfish.png"
					},
					{
						"label":"mumbojumbo.png skin",
						"description":"mumbojumbo.png skin",
						"name":"mumbojumbo.png"
					},
					{
						"label":"notch.png skin",
						"description":"notch.png skin",
						"name":"notch.png"
					},
					{
						"label":"pixlriffs.png skin",
						"description":"pixlriffs.png skin",
						"name":"pixlriffs.png"
					},
					{
						"label":"PonderSlime with Hoodie.png skin",
						"description":"PonderSlime with Hoodie.png skin",
						"name":"PonderSlime with Hoodie.png"
					},
					{
						"label":"PonderSlime Wonka Outfit.png skin",
						"description":"PonderSlime Wonka Outfit.png skin",
						"name":"PonderSlime Wonka Outfit.png"
					},
					{
						"label":"ponderslime.png skin",
						"description":"ponderslime.png skin",
						"name":"ponderslime.png"
					},
					{
						"label":"redshirt.png skin",
						"description":"redshirt.png skin",
						"name":"redshirt.png"
					},
					{
						"label":"Santa-on-planetminecraft-com.png skin",
						"description":"Santa-on-planetminecraft-com.png skin",
						"name":"Santa-on-planetminecraft-com.png"
					},
					{
						"label":"skipthetutorial.png skin",
						"description":"skipthetutorial.png skin",
						"name":"skipthetutorial.png"
					},
					{
						"label":"steve.png skin",
						"description":"steve.png skin",
						"name":"steve.png"
					},
					{
						"label":"steve2.png skin",
						"description":"steve2.png skin",
						"name":"steve2.png"
					},
					{
						"label":"template-skin.png skin",
						"description":"template-skin.png skin",
						"name":"template-skin.png"
					},
					{
						"label":"theduckcow.png skin",
						"description":"theduckcow.png skin",
						"name":"theduckcow.png"
					},
					{
						"label":"thekindkitten.png skin",
						"description":"thekindkitten.png skin",
						"name":"thekindkitten.png"
					},
					{
						"label":"Toolbelt-Trousers-from-the-Minecraft-Bedrock-character-creator-on-planetminecraft-com.png skin",
						"description":"Toolbelt-Trousers-from-the-Minecraft-Bedrock-character-creator-on-planetminecraft-com.png skin",
						"name":"Toolbelt-Trousers-from-the-Minecraft-Bedrock-character-creator-on-planetminecraft-com.png"
					},
					{
						"label":"Wand.png skin",
						"description":"Wand.png skin",
						"name":"Wand.png"
					},
					{
						"label":"wattles.png skin",
						"description":"wattles.png skin",
						"name":"wattles.png"
					}
				],
				"mcprep_props":{}
			},
			"name":"Scene",
			"nodes":[
				17
			]
		}
	],
	"nodes":[
		{
			"name":"Bone.014",
			"rotation":[
				-0.15775777399539948,
				-0.0009098974987864494,
				-0.4462825655937195,
				0.8808765411376953
			],
			"translation":[
				-3.725290298461914e-09,
				0.06708493828773499,
				-1.862645149230957e-09
			]
		},
		{
			"children":[
				0
			],
			"name":"Bone.013",
			"rotation":[
				0.0970844179391861,
				-0.11215624958276749,
				-0.4215222895145416,
				0.8946030139923096
			],
			"scale":[
				0.9999998807907104,
				1,
				0.9999999403953552
			],
			"translation":[
				0,
				0.238956019282341,
				2.7066562324762344e-09
			]
		},
		{
			"children":[
				1
			],
			"name":"Bone.001",
			"rotation":[
				-0.18788975477218628,
				-0.044216547161340714,
				-0.1217048168182373,
				0.9736171364784241
			],
			"translation":[
				3.2575857566996547e-09,
				0.3021700382232666,
				1.9406058981985552e-09
			]
		},
		{
			"name":"Bone.012",
			"rotation":[
				-0.01734107919037342,
				0.003766148816794157,
				-0.14701032638549805,
				0.9889757037162781
			],
			"scale":[
				0.9999998807907104,
				1,
				1
			],
			"translation":[
				-2.60770320892334e-08,
				0.06709565222263336,
				0
			]
		},
		{
			"children":[
				3
			],
			"name":"Bone.011",
			"rotation":[
				0.1510912925004959,
				-0.05774654075503349,
				-0.45085012912750244,
				0.877821683883667
			],
			"scale":[
				1.0000001192092896,
				0.9999998807907104,
				1
			],
			"translation":[
				-3.259629011154175e-09,
				0.23799647390842438,
				-3.841705620288849e-09
			]
		},
		{
			"children":[
				4
			],
			"name":"Bone.002",
			"rotation":[
				-0.08041052520275116,
				-0.026255864650011063,
				-0.12391718477010727,
				0.9886806011199951
			],
			"translation":[
				3.2575857566996547e-09,
				0.3021700382232666,
				1.9406058981985552e-09
			]
		},
		{
			"name":"Bone.010",
			"rotation":[
				-0.010742641985416412,
				-0.012007002718746662,
				-0.04296724125742912,
				0.9989466071128845
			],
			"scale":[
				0.9999999403953552,
				0.9999998807907104,
				0.9999999403953552
			],
			"translation":[
				-2.1886080503463745e-08,
				0.06631628423929214,
				8.381903171539307e-09
			]
		},
		{
			"children":[
				6
			],
			"name":"Bone.009",
			"rotation":[
				0.04165797680616379,
				-0.18801595270633698,
				-0.44474363327026367,
				0.8747100830078125
			],
			"scale":[
				0.9999998211860657,
				0.9999999403953552,
				1
			],
			"translation":[
				9.096766007132828e-09,
				0.25567498803138733,
				5.820766091346741e-10
			]
		},
		{
			"children":[
				7
			],
			"name":"Bone.003",
			"rotation":[
				0.05072369799017906,
				-0.004077671095728874,
				-0.11917125433683395,
				0.9915688037872314
			],
			"translation":[
				3.2575857566996547e-09,
				0.3021700382232666,
				1.9406058981985552e-09
			]
		},
		{
			"name":"Bone.008",
			"rotation":[
				-0.004805571399629116,
				-0.06708189845085144,
				-0.1845419555902481,
				0.9805209040641785
			],
			"translation":[
				0,
				0.05745919048786163,
				0
			]
		},
		{
			"children":[
				9
			],
			"name":"Bone.007",
			"rotation":[
				0.0456133708357811,
				-0.04923705756664276,
				-0.19866058230400085,
				0.9777674674987793
			],
			"translation":[
				3.958120942115784e-09,
				0.2406354546546936,
				-3.259629011154175e-09
			]
		},
		{
			"children":[
				10
			],
			"name":"Bone.004",
			"rotation":[
				0.16498121619224548,
				0.014752150513231754,
				-0.11323924362659454,
				0.9796634316444397
			],
			"scale":[
				1,
				1,
				0.9999999403953552
			],
			"translation":[
				3.2575857566996547e-09,
				0.3021700382232666,
				1.9406058981985552e-09
			]
		},
		{
			"name":"Bone.006",
			"rotation":[
				0.018536021932959557,
				-0.031632956117391586,
				-0.19023346900939941,
				0.9810540080070496
			],
			"scale":[
				1,
				1,
				1.0000001192092896
			],
			"translation":[
				7.450580596923828e-09,
				0.06862926483154297,
				-1.3969838619232178e-09
			]
		},
		{
			"children":[
				12
			],
			"name":"Bone.015",
			"rotation":[
				-0.16127893328666687,
				0.008172202855348587,
				-0.23354977369308472,
				0.9588413834571838
			],
			"scale":[
				0.9999999403953552,
				0.9999999403953552,
				0.9999998807907104
			],
			"translation":[
				1.3969838619232178e-09,
				0.16102732717990875,
				3.1141098588705063e-09
			]
		},
		{
			"children":[
				13
			],
			"name":"Bone.005",
			"rotation":[
				0.4326775372028351,
				0.024078266695141792,
				-0.058055534958839417,
				0.8993552923202515
			],
			"translation":[
				3.2575857566996547e-09,
				0.3021700382232666,
				1.9406058981985552e-09
			]
		},
		{
			"children":[
				2,
				5,
				8,
				11,
				14
			],
			"name":"Bone",
			"rotation":[
				1.1632309337983315e-07,
				1.0620804857808253e-07,
				-0.7365835309028625,
				0.6763466000556946
			],
			"scale":[
				1,
				1.0000001192092896,
				1
			],
			"translation":[
				-0.28800833225250244,
				0.04769812151789665,
				-0.023002570495009422
			]
		},
		{
			"extras":{
				"jv_properties":{}
			},
			"mesh":0,
			"name":"astronaut_",
			"skin":0
		},
		{
			"children":[
				16,
				15
			],
			"name":"Armature"
		}
	],
	"animations":[
		{
			"channels":[
				{
					"sampler":0,
					"target":{
						"node":16,
						"path":"translation"
					}
				},
				{
					"sampler":1,
					"target":{
						"node":16,
						"path":"rotation"
					}
				},
				{
					"sampler":2,
					"target":{
						"node":16,
						"path":"scale"
					}
				}
			],
			"name":"astronaut_Action",
			"samplers":[
				{
					"input":23,
					"interpolation":"LINEAR",
					"output":24
				},
				{
					"input":23,
					"interpolation":"LINEAR",
					"output":25
				},
				{
					"input":23,
					"interpolation":"LINEAR",
					"output":26
				}
			]
		}
	],
	"materials":[
		{
			"doubleSided":true,
			"extensions":{
				"KHR_materials_specular":{
					"specularFactor":0,
					"specularColorFactor":[
						0.8980392217636108,
						0.8980392217636108,
						0.8980392217636108
					]
				}
			},
			"name":"astnt1_1",
			"pbrMetallicRoughness":{
				"baseColorFactor":[
					0.5843137502670288,
					0.5843137502670288,
					0.5843137502670288,
					1
				],
				"metallicFactor":0,
				"roughnessFactor":0.800000011920929
			}
		},
		{
			"doubleSided":true,
			"extensions":{
				"KHR_materials_specular":{
					"specularColorFactor":[
						1.7960784435272217,
						1.7960784435272217,
						1.7960784435272217
					]
				}
			},
			"name":"astnt1_2",
			"pbrMetallicRoughness":{
				"baseColorTexture":{
					"index":0
				},
				"metallicFactor":0,
				"roughnessFactor":0.10000000149011612
			}
		}
	],
	"meshes":[
		{
			"name":"astronaut_",
			"primitives":[
				{
					"attributes":{
						"POSITION":0,
						"NORMAL":1,
						"TEXCOORD_0":2,
						"TANGENT":3,
						"JOINTS_0":4,
						"JOINTS_1":5,
						"JOINTS_2":6,
						"WEIGHTS_0":7,
						"WEIGHTS_1":8,
						"WEIGHTS_2":9
					},
					"indices":10,
					"material":0
				},
				{
					"attributes":{
						"POSITION":11,
						"NORMAL":12,
						"TEXCOORD_0":13,
						"TANGENT":14,
						"JOINTS_0":15,
						"JOINTS_1":16,
						"JOINTS_2":17,
						"WEIGHTS_0":18,
						"WEIGHTS_1":19,
						"WEIGHTS_2":20
					},
					"indices":21,
					"material":1
				}
			]
		}
	],
	"textures":[
		{
			"sampler":0,
			"source":0
		}
	],
	"images":[
		{
			"mimeType":"image/png",
			"name":"astnt1_2.tga",
			"uri":"../../assets/player/models/astnt1_2.tga"
		}
	],
	"skins":[
		{
			"inverseBindMatrices":22,
			"joints":[
				15,
				2,
				1,
				0,
				5,
				4,
				3,
				8,
				7,
				6,
				11,
				10,
				9,
				14,
				13,
				12
			],
			"name":"Armature"
		}
	],
	"accessors":[
		{
			"bufferView":0,
			"componentType":5126,
			"count":602,
			"max":[
				0.316675066947937,
				0.1269100308418274,
				0.17833004891872406
			],
			"min":[
				-0.2985350489616394,
				-0.20165005326271057,
				-0.17631004750728607
			],
			"type":"VEC3"
		},
		{
			"bufferView":1,
			"componentType":5126,
			"count":602,
			"type":"VEC3"
		},
		{
			"bufferView":2,
			"componentType":5126,
			"count":602,
			"type":"VEC2"
		},
		{
			"bufferView":3,
			"componentType":5126,
			"count":602,
			"type":"VEC4"
		},
		{
			"bufferView":4,
			"componentType":5121,
			"count":602,
			"type":"VEC4"
		},
		{
			"bufferView":5,
			"componentType":5121,
			"count":602,
			"type":"VEC4"
		},
		{
			"bufferView":6,
			"componentType":5121,
			"count":602,
			"type":"VEC4"
		},
		{
			"bufferView":7,
			"componentType":5126,
			"count":602,
			"type":"VEC4"
		},
		{
			"bufferView":8,
			"componentType":5126,
			"count":602,
			"type":"VEC4"
		},
		{
			"bufferView":9,
			"componentType":5126,
			"count":602,
			"type":"VEC4"
		},
		{
			"bufferView":10,
			"componentType":5123,
			"count":2454,
			"type":"SCALAR"
		},
		{
			"bufferView":11,
			"componentType":5126,
			"count":24,
			"max":[
				-0.0488550141453743,
				0.11087502539157867,
				0.10361502319574356
			],
			"min":[
				-0.2985350489616394,
				-0.03849000856280327,
				-0.14508002996444702
			],
			"type":"VEC3"
		},
		{
			"bufferView":12,
			"componentType":5126,
			"count":24,
			"type":"VEC3"
		},
		{
			"bufferView":13,
			"componentType":5126,
			"count":24,
			"type":"VEC2"
		},
		{
			"bufferView":14,
			"componentType":5126,
			"count":24,
			"type":"VEC4"
		},
		{
			"bufferView":15,
			"componentType":5121,
			"count":24,
			"type":"VEC4"
		},
		{
			"bufferView":16,
			"componentType":5121,
			"count":24,
			"type":"VEC4"
		},
		{
			"bufferView":17,
			"componentType":5121,
			"count":24,
			"type":"VEC4"
		},
		{
			"bufferView":18,
			"componentType":5126,
			"count":24,
			"type":"VEC4"
		},
		{
			"bufferView":19,
			"componentType":5126,
			"count":24,
			"type":"VEC4"
		},
		{
			"bufferView":20,
			"componentType":5126,
			"count":24,
			"type":"VEC4"
		},
		{
			"bufferView":21,
			"componentType":5123,
			"count":72,
			"type":"SCALAR"
		},
		{
			"bufferView":22,
			"componentType":5126,
			"count":16,
			"type":"MAT4"
		},
		{
			"bufferView":23,
			"componentType":5126,
			"count":1,
			"max":[
				0
			],
			"min":[
				0
			],
			"type":"SCALAR"
		},
		{
			"bufferView":24,
			"componentType":5126,
			"count":1,
			"type":"VEC3"
		},
		{
			"bufferView":25,
			"componentType":5126,
			"count":1,
			"type":"VEC4"
		},
		{
			"bufferView":26,
			"componentType":5126,
			"count":1,
			"type":"VEC3"
		}
	],
	"bufferViews":[
		{
			"buffer":0,
			"byteLength":7224,
			"byteOffset":0,
			"target":34962
		},
		{
			"buffer":0,
			"byteLength":7224,
			"byteOffset":7224,
			"target":34962
		},
		{
			"buffer":0,
			"byteLength":4816,
			"byteOffset":14448,
			"target":34962
		},
		{
			"buffer":0,
			"byteLength":9632,
			"byteOffset":19264,
			"target":34962
		},
		{
			"buffer":0,
			"byteLength":2408,
			"byteOffset":28896,
			"target":34962
		},
		{
			"buffer":0,
			"byteLength":2408,
			"byteOffset":31304,
			"target":34962
		},
		{
			"buffer":0,
			"byteLength":2408,
			"byteOffset":33712,
			"target":34962
		},
		{
			"buffer":0,
			"byteLength":9632,
			"byteOffset":36120,
			"target":34962
		},
		{
			"buffer":0,
			"byteLength":9632,
			"byteOffset":45752,
			"target":34962
		},
		{
			"buffer":0,
			"byteLength":9632,
			"byteOffset":55384,
			"target":34962
		},
		{
			"buffer":0,
			"byteLength":4908,
			"byteOffset":65016,
			"target":34963
		},
		{
			"buffer":0,
			"byteLength":288,
			"byteOffset":69924,
			"target":34962
		},
		{
			"buffer":0,
			"byteLength":288,
			"byteOffset":70212,
			"target":34962
		},
		{
			"buffer":0,
			"byteLength":192,
			"byteOffset":70500,
			"target":34962
		},
		{
			"buffer":0,
			"byteLength":384,
			"byteOffset":70692,
			"target":34962
		},
		{
			"buffer":0,
			"byteLength":96,
			"byteOffset":71076,
			"target":34962
		},
		{
			"buffer":0,
			"byteLength":96,
			"byteOffset":71172,
			"target":34962
		},
		{
			"buffer":0,
			"byteLength":96,
			"byteOffset":71268,
			"target":34962
		},
		{
			"buffer":0,
			"byteLength":384,
			"byteOffset":71364,
			"target":34962
		},
		{
			"buffer":0,
			"byteLength":384,
			"byteOffset":71748,
			"target":34962
		},
		{
			"buffer":0,
			"byteLength":384,
			"byteOffset":72132,
			"target":34962
		},
		{
			"buffer":0,
			"byteLength":144,
			"byteOffset":72516,
			"target":34963
		},
		{
			"buffer":0,
			"byteLength":1024,
			"byteOffset":72660
		},
		{
			"buffer":0,
			"byteLength":4,
			"byteOffset":73684
		},
		{
			"buffer":0,
			"byteLength":12,
			"byteOffset":73688
		},
		{
			"buffer":0,
			"byteLength":16,
			"byteOffset":73700
		},
		{
			"buffer":0,
			"byteLength":12,
			"byteOffset":73716
		}
	],
	"samplers":[
		{
			"magFilter":9729,
			"minFilter":9987
		}
	],
	"buffers":[
		{
			"byteLength":73728,
			"uri":"hand-ffa518ffa936c9504afe16428ab88fc4.bin"
		}
	]
}
